<svg width="324.9599975585937px" height="124.439990234375px" xmlns="http://www.w3.org/2000/svg" viewBox="87.52000122070314 12.780004882812499 324.9599975585937 124.439990234375" style="background: rgba(0, 0, 0, 0) none repeat scroll 0% 0%;" preserveAspectRatio="xMidYMid"><defs><linearGradient id="editing-gradient-gradient" x1="0" x2="1" y1="0.5" y2="0.5" gradientUnits="objectBoundingBox"><stop offset="0" stop-color="#f0f"></stop><stop offset="1" stop-color="#0ff"></stop></linearGradient></defs><g><g transform="translate(139.1499908566475, 104.79000091552734)"><path d="M26.11-42.69L26.11-42.69L26.11-42.69Q41.79-42.69 41.79-31.62L41.79-31.62L41.79-31.62Q41.79-25.54 37.89-21.89L37.89-21.89L37.89-21.89Q34.05-18.24 27.33-18.24L27.33-18.24L27.33-18.24Q24.19-18.24 21.76-20.03L21.76-20.03L21.76-20.03Q20.61-20.80 19.84-21.82L19.84-21.82L19.84-21.82Q24.51-21.82 26.98-24.67L26.98-24.67L26.98-24.67Q29.44-27.52 29.44-33.09L29.44-33.09L29.44-33.09Q29.44-38.66 23.94-38.66L23.94-38.66L22.40-38.66L22.40-38.66Q22.02-38.66 21.70-38.59L21.70-38.59L14.34 0L0.45 0L8.32-41.92L8.32-41.92Q15.17-42.56 19.14-42.62L19.14-42.62L19.14-42.62Q23.10-42.69 26.11-42.69ZM44.90-1.92L44.90-1.92L44.90-1.92Q43.39-3.58 42.72-6.21L42.72-6.21L42.72-6.21Q42.05-8.83 42.05-13.12L42.05-13.12L42.05-13.12Q42.05-17.41 43.52-21.31L43.52-21.31L43.52-21.31Q44.99-25.22 47.68-28.03L47.68-28.03L47.68-28.03Q53.18-33.92 62.27-33.92L62.27-33.92L62.27-33.92Q65.54-33.92 67.90-32.83L67.90-32.83L78.85-33.92L74.11-8.96L74.11-8.96Q73.92-8.19 73.92-6.78L73.92-6.78L73.92-6.78Q73.92-5.38 74.78-4.48L74.78-4.48L74.78-4.48Q75.65-3.58 76.93-3.46L76.93-3.46L76.93-3.46Q76.29-1.28 73.95 0L73.95 0L73.95 0Q71.62 1.28 68.99 1.28L68.99 1.28L68.99 1.28Q66.37 1.28 64.61 0.29L64.61 0.29L64.61 0.29Q62.85-0.70 62.34-2.37L62.34-2.37L62.34-2.37Q61.31-0.77 59.14 0.26L59.14 0.26L59.14 0.26Q56.96 1.28 54.05 1.28L54.05 1.28L54.05 1.28Q51.14 1.28 48.77 0.51L48.77 0.51L48.77 0.51Q46.40-0.26 44.90-1.92ZM58.40-27.90L58.40-27.90L58.40-27.90Q57.66-26.75 57.02-24.80L57.02-24.80L57.02-24.80Q56.38-22.85 55.33-17.63L55.33-17.63L55.33-17.63Q54.27-12.42 54.27-8.70L54.27-8.70L54.27-8.70Q54.27-4.99 54.85-3.90L54.85-3.90L54.85-3.90Q55.42-2.82 56.45-2.82L56.45-2.82L56.45-2.82Q58.50-2.82 60-4.77L60-4.77L60-4.77Q61.50-6.72 62.08-10.18L62.08-10.18L65.47-28.93L65.47-28.93Q64.13-30.08 62.56-30.08L62.56-30.08L62.56-30.08Q60.99-30.08 60.06-29.57L60.06-29.57L60.06-29.57Q59.14-29.06 58.40-27.90ZM102.34-17.98L102.34-17.98L102.34-17.98Q104.64-22.08 104.64-26.24L104.64-26.24L104.64-26.24Q104.64-28.99 102.66-28.99L102.66-28.99L102.66-28.99Q101.12-28.99 99.52-26.37L99.52-26.37L99.52-26.37Q97.86-23.74 97.34-20.35L97.34-20.35L94.02 0L80.77 1.28L87.30-32.64L97.86-33.92L96.70-27.46L96.70-27.46Q99.84-33.92 106.88-33.92L106.88-33.92L106.88-33.92Q110.59-33.92 112.61-32L112.61-32L112.61-32Q114.62-30.08 114.62-26.14L114.62-26.14L114.62-26.14Q114.62-22.21 112.03-19.71L112.03-19.71L112.03-19.71Q109.44-17.22 105.02-17.22L105.02-17.22L105.02-17.22Q103.10-17.22 102.34-17.98ZM116.67-6.40L116.67-6.40L116.67-6.40Q116.67-8.13 117.57-12.48L117.57-12.48L120.96-29.76L117.18-29.76L117.44-31.68L117.44-31.68Q125.12-33.98 132.54-39.62L132.54-39.62L135.62-39.62L134.08-32.64L139.07-32.64L138.50-29.76L133.57-29.76L130.30-12.48L130.30-12.48Q129.47-8.51 129.47-7.17L129.47-7.17L129.47-7.17Q129.47-4.10 132.16-3.46L132.16-3.46L132.16-3.46Q131.52-1.28 129.22 0L129.22 0L129.22 0Q126.91 1.28 123.65 1.28L123.65 1.28L123.65 1.28Q120.38 1.28 118.53-0.77L118.53-0.77L118.53-0.77Q116.67-2.82 116.67-6.40ZM154.11-3.52L154.11-3.52L154.11-3.52Q152.13 1.28 145.79 1.28L145.79 1.28L145.79 1.28Q142.53 1.28 140.48-0.96L140.48-0.96L140.48-0.96Q138.75-2.94 138.75-4.93L138.75-4.93L138.75-4.93Q138.75-10.11 141.12-20.22L141.12-20.22L143.49-32.64L156.48-33.92L152.58-13.70L152.58-13.70Q151.49-8.96 151.49-7.30L151.49-7.30L151.49-7.30Q151.49-3.65 154.11-3.52ZM144.64-41.54L144.64-41.54L144.64-41.54Q144.64-44.03 146.72-45.38L146.72-45.38L146.72-45.38Q148.80-46.72 151.81-46.72L151.81-46.72L151.81-46.72Q154.82-46.72 156.64-45.38L156.64-45.38L156.64-45.38Q158.46-44.03 158.46-41.54L158.46-41.54L158.46-41.54Q158.46-39.04 156.45-37.76L156.45-37.76L156.45-37.76Q154.43-36.48 151.42-36.48L151.42-36.48L151.42-36.48Q148.42-36.48 146.53-37.76L146.53-37.76L146.53-37.76Q144.64-39.04 144.64-41.54ZM184.51-37.12L184.51-37.12L184.51-37.12Q185.41-38.66 185.41-40.32L185.41-40.32L185.41-40.32Q185.41-43.26 183.62-43.26L183.62-43.26L183.62-43.26Q180.86-43.26 179.71-37.63L179.71-37.63L178.75-32.64L184.58-32.64L184.19-29.76L178.18-29.76L172.42 0L159.49 1.28L165.63-29.76L161.09-29.76L161.66-32.64L166.14-32.64L167.49-37.70L167.49-37.70Q168.64-42.37 173.57-44.54L173.57-44.54L173.57-44.54Q177.15-46.08 183.17-46.08L183.17-46.08L183.17-46.08Q189.18-46.08 191.87-44.54L191.87-44.54L191.87-44.54Q194.56-43.01 194.56-40.96L194.56-40.96L194.56-40.96Q194.56-38.91 192.96-37.63L192.96-37.63L192.96-37.63Q191.36-36.35 189.57-36.35L189.57-36.35L189.57-36.35Q186.05-36.35 184.51-37.12ZM204.35-7.23L204.35-7.23L204.35-7.23Q201.02-3.78 194.94-3.78L194.94-3.78L194.94-3.78Q187.33-3.78 185.73-9.34L185.73-9.34L185.73-9.34Q185.22-11.01 185.22-12.86L185.22-12.86L185.22-12.86Q185.22-14.72 185.60-16.64L185.60-16.64L188.61-32.64L201.60-33.92L198.08-15.30L198.08-15.30Q197.95-14.46 197.76-13.57L197.76-13.57L197.76-13.57Q197.57-12.67 197.57-11.74L197.57-11.74L197.57-11.74Q197.57-10.82 197.89-10.21L197.89-10.21L197.89-10.21Q198.21-9.60 198.66-9.22L198.66-9.22L198.66-9.22Q199.42-8.70 200.80-8.70L200.80-8.70L200.80-8.70Q202.18-8.70 203.36-10.37L203.36-10.37L203.36-10.37Q204.54-12.03 205.12-14.91L205.12-14.91L208.64-32.64L221.25-33.92L216.45-8.77L216.45-8.77Q214.08 3.52 209.22 8.38L209.22 8.38L209.22 8.38Q206.72 10.88 203.49 11.87L203.49 11.87L203.49 11.87Q200.26 12.86 196.10 12.86L196.10 12.86L196.10 12.86Q189.38 12.86 185.54 10.75L185.54 10.75L185.54 10.75Q181.70 8.64 181.70 5.12L181.70 5.12L181.70 5.12Q181.70 2.50 183.68 0.99L183.68 0.99L183.68 0.99Q185.66-0.51 188.74-0.51L188.74-0.51L188.74-0.51Q191.42-0.51 193.47 0.64L193.47 0.64L193.47 0.64Q194.69 1.34 195.26 2.24L195.26 2.24L195.26 2.24Q193.79 3.52 193.79 5.63L193.79 5.63L193.79 5.63Q193.79 8.45 196.35 8.45L196.35 8.45L196.35 8.45Q200.58 8.45 203.01-1.28L203.01-1.28L203.01-1.28Q203.71-4.16 204.35-7.23Z" fill="url(#editing-gradient-gradient)"></path></g></g><style>text {
  font-size: 64px;
  font-family: Arial Black;
  dominant-baseline: central;
  text-anchor: middle;
}</style></svg>